<svg width="24" height="24" viewBox="0 0 24 24" fill="none" xmlns="http://www.w3.org/2000/svg">
<path d="M6.69086 16.2909C6.40969 16.5721 6.40969 17.0279 6.69086 17.3091C6.97204 17.5903 7.42792 17.5903 7.70909 17.3091L6.69086 16.2909ZM12.5091 12.5091C12.7903 12.2279 12.7903 11.7721 12.5091 11.4909C12.2279 11.2097 11.7721 11.2097 11.4909 11.4909L12.5091 12.5091ZM11.4909 11.4909C11.2097 11.7721 11.2097 12.2279 11.4909 12.5091C11.7721 12.7903 12.2279 12.7903 12.5091 12.5091L11.4909 11.4909ZM17.3091 7.70913C17.5903 7.42795 17.5903 6.97207 17.3091 6.69089C17.0279 6.40972 16.5721 6.40972 16.2909 6.69089L17.3091 7.70913ZM12.5091 11.4909C12.2279 11.2097 11.7721 11.2097 11.4909 11.4909C11.2097 11.7721 11.2097 12.2279 11.4909 12.5091L12.5091 11.4909ZM16.2909 17.3091C16.5721 17.5903 17.0279 17.5903 17.3091 17.3091C17.5903 17.0279 17.5903 16.5721 17.3091 16.2909L16.2909 17.3091ZM11.4909 12.5091C11.7721 12.7903 12.2279 12.7903 12.5091 12.5091C12.7903 12.2279 12.7903 11.7721 12.5091 11.4909L11.4909 12.5091ZM7.70909 6.69089C7.42792 6.40972 6.97204 6.40972 6.69086 6.69089C6.40969 6.97207 6.40969 7.42795 6.69086 7.70913L7.70909 6.69089ZM7.70909 17.3091L12.5091 12.5091L11.4909 11.4909L6.69086 16.2909L7.70909 17.3091ZM12.5091 12.5091L17.3091 7.70913L16.2909 6.69089L11.4909 11.4909L12.5091 12.5091ZM11.4909 12.5091L16.2909 17.3091L17.3091 16.2909L12.5091 11.4909L11.4909 12.5091ZM12.5091 11.4909L7.70909 6.69089L6.69086 7.70913L11.4909 12.5091L12.5091 11.4909Z" fill="white"/>
</svg>
