<svg width="20" height="21" viewBox="0 0 20 21" fill="none" xmlns="http://www.w3.org/2000/svg">
<path fill-rule="evenodd" clip-rule="evenodd" d="M12.4556 3.01707C12.7176 3.10204 12.8954 3.34529 12.8967 3.62071C12.9019 3.74157 12.9023 3.83993 12.9023 3.83993C12.9023 3.83993 12.8981 7.19407 8.92668 10.2817C7.3111 11.5378 5.90989 13.5795 5.54393 15.4885C5.49583 15.7437 5.29823 15.9449 5.04371 15.9972C4.78919 16.0496 4.52833 15.9429 4.38326 15.7269C3.25143 14.0497 1.9679 10.9152 4.10824 7.20348C6.03821 3.85674 9.6016 2.14528 12.4556 3.01707ZM11.6104 4.07154C9.15483 3.767 6.74656 5.25877 5.2449 7.85973C4.05216 9.9256 4.28226 12.2715 4.86711 13.8231C5.35002 12.3856 6.29119 10.6682 8.12126 9.24532C10.4531 7.43246 11.3598 5.07187 11.6104 4.07154Z" fill="white"/>
<path fill-rule="evenodd" clip-rule="evenodd" d="M6.86177 17.7905C6.58801 17.7029 6.40157 17.449 6.40044 17.1616C6.39496 17.0497 6.39436 16.9614 6.39436 16.9614C6.39436 16.9614 6.39856 13.6073 10.37 10.5196C11.9711 9.2749 13.3615 7.25838 13.7426 5.36459C13.7954 5.10065 14.0021 4.89416 14.2664 4.84255C14.5309 4.79066 14.8004 4.90342 14.9487 5.12813C16.0722 6.81792 17.3062 9.92531 15.1885 13.5979C13.263 16.9362 9.71252 18.6475 6.86177 17.7905ZM7.68634 16.7298C10.1419 17.0343 12.5501 15.5426 14.0518 12.9416C15.2445 10.8757 15.0144 8.52982 14.4296 6.9782C13.9467 8.41575 13.0055 10.1332 11.1754 11.556C8.84361 13.3689 7.9369 15.7295 7.68634 16.7298Z" fill="white"/>
</svg>
